<svg xmlns="http://www.w3.org/2000/svg" viewBox="0 0 863.69 499.5">
  <g id="Layer_2" data-name="Layer 2">
    <g id="Layer_1-2" data-name="Layer 1">
      <path class="cls-1"
        d="M821.44,308.32c-16.37-2.4-30.75-4.95-38.41-7.36-25.45-8-3.22-36.08,34.73-16.47,9.58,4.95,10,13.74,3.68,23.83-18.59,29.89-95.56,71.24-164.57,58.31-92.3-17.3,6.46-24.81,11.6-53.16S608.82,303.29,591,279.14c-10.56-14.3-12.81-53.91-12.85-85.23,0-21.53,1-39.13,1.07-41.89.09-3,3.51,14.15,8.06,36.92C700.22,126.56,855.44,7.49,845.68,11c-14.39,5.14-253.61,140.79-253.61,140.79S441.32,48.07,477.1,43.65s386-44.25,381.55-38-119,315.88-139.83,294.8-93.36-121.12-93.36-121.12-10.94,124.58-20,92.93c-5-17.58-12.5-54.86-18.2-83.34q-4.62,2.55-9.13,5c-49.42,26.47-89.25,40.61-100.93,26.38-38.48-46.87-88.8-168.06-102.68-179.82-1.74-1.47-6.82-1.06-14.35.86-30.87,7.86-102.9,41.1-154.15,74.19-4.88,3.15-9.58,6.3-14,9.43C163.53,145,145,164,150.34,176.34c17.23,39.37,62.21,146.62,69.74,178.15S208.93,389,199,387.89s17.75-61.05-14.37-126-60.6-66.44-63.66-102.5c-2.44-28.77,21-42.68,50.84-45.67a138.1,138.1,0,0,1,23.5-.25,42.42,42.42,0,0,1,10.78,2c26.56,9.13,16.21,44.45,15.46,67.2-.85,25.42.51-15.24-14.23-44.1C203.48,131.18,198.15,127,192,125c-17.61-5.78-41.75,6.85-54.71,14.21-5.67,3.22,9.74-8.51,34.45-25.44C196,97.09,229.23,75.45,260.26,58c34.8-19.54,66.85-33.83,80.47-29.85,7.34,2.14,13.81,6.89,19.47,13.17,23.71,26.3,33.16,79.37,33.16,79.37s26.53,62.48,57.19,130.57,82.77,92.81,88.35,96.85c1.32,1-5.56,5.85-17,12.74-36.81,22.25-120.73,65.34-128.34,64.47-10-1.13-48.09-15.69-95-68.74s-69.42-147.48-69-161S375.81,134,390,135.61s21,58.45,39.24,111.55c14.84,43.09,71.7,95.46,92.65,113.7,4.88,4.26,7.81,6.66,7.81,6.66s-166.5,112.38-191,119.83S195.85,181.51,190.27,177.47,168.38,192,168.2,197.07s121.38,260.81,143.3,290.6S175.76,437.38,5,483.51" />
    </g>
  </g>
</svg>