<svg xmlns="http://www.w3.org/2000/svg" viewBox="0 0 5999.06 776.8">
  <defs>
    <style>
      .cls-1 {
        fill: none;
        stroke: #fff;
        stroke-linecap: round;
        stroke-linejoin: round;
        stroke-width: 5px;
        fill-rule: evenodd;
      }
    </style>
  </defs>
  <g id="Layer_2" data-name="Layer 2">
    <g id="Layer_1-2" data-name="Layer 1">
      <path class="cls-1"
        d="M5,760.81c170.76-46.14,328.41,34,306.5,4.15S168,479.46,168.2,474.37s16.5-23.63,22.08-19.6,123.84,317.32,148.4,309.87S529.73,644.81,529.73,644.81s-82.16-67.23-100.46-120.36-25-109.93-39.24-111.54S230.1,459.3,229.65,472.85s22.13,108,69,161,85,67.61,95,68.74,150.91-73.17,145.32-77.21-57.66-28.69-88.34-96.86S393.36,398,393.36,398s-14.49-81.43-52.63-92.55c-13.62-4-45.67,10.31-80.47,29.86-62.63,35.21-134.16,87.53-122.94,81.15,17.46-9.91,55.23-29.4,70-.55s13.39,69.53,14.23,44.11,13.63-66.42-26.23-69.25-77.41,9.89-74.35,45.92,31.57,37.6,63.66,102.49,4.4,124.87,14.37,126,28.65-1.86,21.12-33.4S167.58,493,150.34,453.63,360.67,306,374.55,317.77s64.21,133,102.68,179.82S860.08,283.14,845.68,288.28,592.07,429.07,592.07,429.07,441.32,325.36,477.1,321s386-44.25,381.56-38S739.6,598.85,718.83,577.77s-93.37-121.12-93.37-121.12-10.94,124.58-20,92.93-26.06-127-26.27-120.26-6,103,11.78,127.12,82.6,6,77.46,34.33-103.9,35.86-11.6,53.15,198.85-62.5,160.89-82.13-60.18,8.47-34.73,16.47,125.06,17.61,125.06,17.61,117.07-412.46,130-416.06,45.28,8.53,107.35,27.44,135.82,27.28,135.82,27.28L1165.92,662.6s-158.13-60.5-193.64-66.24-45.79,5-42.56-8.24,13-58,13-58,21.74,38.17,25.31,13.08-12.83-50.74-17.33-42.76-11.06,37.82-.53,18.63,24.13-97.45,24.13-97.45-5.31,36.75,10.8,21.59,18.46-48.8,7.1-50.09-22.11,26.33-9,15.94,26.36-76.71,26.36-76.71,7.81,26.32,15.47,6.85c.31-.79.58-1.57.82-2.38,5.52-18.72-9.85-37.56-14-36.4-4.31,1.21-10.65,24.21,1,13.67s23.68-83.67,23.68-83.67-6.1,14.54,11.21,6.36,11-37.67.83-30.37-9,17.59-3.35,18.23,14.56-11.88,34.32-6.25,176.57,47.17,157.91,53.51-156.86-39.85-168.48-31-26.19,20.73-15.26,37.21,179.83,34,165,56-14.21,52.62-60.84,38.84-101.79-26.83-117.74-16.78-43.63,32.35-16.93,45.56,160.33,23.31,158.19,50.22,24.44,45.22-15.25,37.31-135.26-56.11-149.84-44.2-25.05,29.41-16.77,38.85,164.33,37.36,161,54,8.86,41.8-18.2,40.43-131.45-42.15-138.94-29.4-20.85,31.64,48.82,39.56,67.65,29.8,104.4,42.48,45.1,20.43,55-31.17,56.63-93.81,69.42-92.36S1449,697.88,1441.67,657.16,1298.58,266.28,1307.23,254s25.37-13.64,25.37-13.64,147.88,424.48,131.62,406-27-33-21.23-42.27,247.29-98,247.29-98-133.74-336.08-125.19-345,36.3-9.07,36.3-9.07,130,382,118.94,377.39-24.12-39.2-24.12-39.2L1669,503.75s-24-42.51-20.94-16.74,23.45,67.87,22.91,51.23-10.42-29.92-13.2-30.24S1626,518.76,1626,518.76s8.13,48.46,15.1,28.24-10.87-49.87-19.2-50.82,8.68,25.31-.65,27.56-24.15,1.67-24.24,5,9.11,46.38,12.4,24.63-24.52-60.27-24.81-48.14,15.23,22.72,4.94,26-36.26,3.63-36.4,9.14,3.4,51.27,15.12,27.16-26-73.72-26.42-58.29,19.58,34.28,5.57,38.22-31.81,10.77-31.81,10.77,5.24,51.49,15,31.57S1512.17,508,1505.24,526s19.57,34.29,1.8,40-44.11,20.44-47.68,14.5-31.63-71.08-27.85-73.95,39.21-9.92,38.48-17.74-29.86-67.47-24.24-32.59,35.72,93.6,34.55,65.82-17.93-62.83-10.8-51,23.2-.68,23.2-.68,16.37,50.49,20.56,31.08-17.47-81.54-25.14-71.36,10.87,48.73,15.68,41.55,20.69-12,20.69-12,12.9,41.25,17.11,20.73-26.81-79.25-26.34-60.43,3,29,14.09,30.31,32.74-11.74,32.74-11.74,13.84,41.34,19.73,27.64-31.29-86.35-31.69-69.85,5.54,39.28,16.74,36.12,86-30,86.18-38.77-30.67-74.07-30.67-74.07-43.83,12.67-38.6,26.49,13.12,32.38,13.58,12.57-30.66-72.94-31-58.66,7.2,47.13,12,41.06-32.55,5.12-32.66,9.52,7.28,43.86,10.58,22.16-24.16-73.33-27.39-54.95,6.38,42.63,8.33,38.44-24.89-5-25,.47,9.14,43,14.22,24.78-20.48-71.82-24.6-54.65-2.77,37.2,4.67,35.84-22.17-2.53-24.15,2.77S1483,413,1490,390.63s-16.88-67-18.15-52.82.89,38.72,1.92,34.42-94.51,35.62-94.51,35.62-13.65-46.81-8.58-27.47-16.46-44.92-13.49-52.3,44.06-20.36,44.06-20.36,10.93,44.27,1.18,26.61-25.12-69-16.71-71.36,34.54,62.36,29.11,57.33-12.6-14.67-4-23.61,20-19.78,21.64-13,25.31,62.41,23.33,30.2-24-77.66-24.35-63.38-3.52,29.35,8.52,29.61,34.58-12.59,34.58-12.59,20.11,48.59,6.63,31.61-30.69-69.6-18.71-67.14,13.2,27.94,13.2,27.94,26.17-10.24,27.94-6.73,15.62,42.55,3,26.79-28.32-52.8-20-52.95,29.26,14.34,25.41,20.51-14,3.92,7.39.84,70.57-8.49,79.11-17.43.11-42.93,8.54-8.94,38.64,206.14,74.44,181.51,45.15-69.86,68-57.33,37.89,167.66,60.08,170.19,225.23-.91,231-10.2-203.48,23.26-213.9-7.75-40.64-47.69-7.06-57.12,239.17-9.22,230.72-3.56-58.42,3.28-34.1,35.85,49.5,25.5,49.5,25.5a510.44,510.44,0,0,0-71.06-13.6c-37.88-4.31-104.22-21.79-96.17-8.72s36.48,27.34,36,51.57,8.44,38.54,5.69,37.12-13.32-26.93-17.12-22.95S1903,570.14,1904.23,557s4-12.81,1.52-27.45,4.64-42.55-22-51.11-55.64,1.4-61-9.14-16-28.32-16.77-37.24,259.5-8,256.82-12.72S2041,401.43,2047,377.86s21-30.68,13.5-26-245.29-1.44-253,9.81-10.6,59.47,3.46,52.24,8-65.27.56-66.11-41.69.77-44.39-2.85-23-47.79.63-68.24,252.76-6.49,252.76-6.49-17.51-3.09-12.51,22.8,39.72,47.47,25,45.79-243.61,6.46-253.55-4.59-24.23-33.62-4.51-45.69,235.33-12.87,204.75-10.85-202.78,5.57-180.7,11.39,42.37,9.21,21,12.29-30.9,15.22-17,16.8-8.9-57.19-10.59-64,259.58,18.52,281.37-6.51,8.81-68.3-20.61-76-270.87-2.22-270.87-2.22,29.82-9.81,32.84,20.23a57.31,57.31,0,0,1-17.72,47.5s250.48,9.79,262.77-3.12-8.28-46-10.36-35.27,10.89,54,1.38,67.27,13.91,42.31,34.44,33.65,40.68-43.82,57-29.85,1.5,62.93,1.5,62.93,167,118.2,197.82,105.16,140.36-86.52,126.69-98-137.36-71.75-159.56-71-165.28,80.29-165.28,80.29l32,205.53s170.51,95.65,173.59,79.43-37.59-361.64-38-338.58S2324.12,502,2324.12,502s-150.87,42.47-112,43.58,136.87-37.44,150.73-35.87,118.65,43.3,121.6,33.7-7.71-189.42-10.95-163.35,24.46,184.76,7.59,196.1-134.71,70.88-92.36,35.9,139.54-33.85,143.19-83.12-28.55-112.43-14.77-107.56,77.89-11,80.94-27.15-155-172.79-155-172.79l-28.73-95.55,77,31.82s-27.59-6.43-25.06,7,4.94,33.52,4.94,33.52l-19.42,1.08s2.47,16.77,19.06,18.66,25.84-49.79,36.95-51.82,176.76,198.24,176.55,211.43-11.84,44.92-25.74,46.64-41.2-24.51-41.2-24.51,16,38.17,49.17,45.25,56.09-36.59,36.93-52-87.64-66.12-63.11-40.22,64-12.53,82.86,19.34,23.9,65.49,9.79,80.42-81.36,53.6-90.4,95.6-23.28,63.61-6.93,82.05S2740.58,675.3,2749,669.62s191.71-190.11,194.92-219.5,14.9-71,6.75-81.81-82.77-25.93-110.58-19.19-106.91,96.86-93.17,105,58.15,6.61,66.15,27.36,12.77,70.94,12.77,70.94-12.82-67.64,4-79,134.71-106.92,89.75-65.82-162.82,123.67-165.91,143.18-1.52,95.91-6.71,72.12-12.57-80.93-34.74-83.45-72.32,8.33-28,16.68c0,0,16.85-11.34,27.4,23s26.33,89.17,56.93,86,73.95-110.87,126.54-101.57,146.12,43.91,231.63,2.9" />
      <path class="cls-1"
        d="M2798.94,640.71c170.76-46.13,401.84,33.14,379.92,3.33s-143.46-285.5-143.29-290.59,16.5-23.63,22.07-19.6,123.85,317.32,148.41,309.87,191-119.83,191-119.83-82.16-67.23-100.46-120.36-25-109.93-39.24-111.54S3097.47,338.38,3097,351.93s22.13,108,69,161,85,67.61,95,68.74,150.91-73.17,145.32-77.21-57.66-28.69-88.35-96.86-57.19-130.56-57.19-130.56-14.5-81.43-52.63-92.55c-13.62-4-45.68,10.31-80.47,29.86-62.63,35.21-134.17,87.53-122.94,81.14,17.46-9.9,55.22-29.39,70-.54s13.38,69.53,14.23,44.11,13.62-66.42-26.24-69.25-77.4,9.89-74.34,45.92,31.57,37.6,63.66,102.49,4.4,124.87,14.37,126,28.65-1.86,21.12-33.4-52.51-138.77-69.74-178.15S3228,185.1,3241.92,196.85s64.2,133,102.67,179.82,382.85-214.45,368.46-209.32-253.61,140.8-253.61,140.8-150.75-103.71-115-108.12,386-44.25,381.56-38S3607,477.93,3586.19,456.85s-93.37-121.12-93.37-121.12-10.94,124.58-20,92.93-26.05-127-26.26-120.27-6,103,11.78,127.13,82.6,6,77.46,34.33-103.9,35.86-11.6,53.15,198.84-62.5,160.89-82.13-60.19,8.47-34.73,16.47S3775.46,475,3775.46,475s117.07-412.46,130-416.06,45.28,8.53,107.35,27.43,135.82,27.29,135.82,27.29L4033.29,541.68s-158.14-60.5-193.64-66.24-45.8,5-42.57-8.24,13.06-58,13.06-58,21.74,38.18,25.3,13.08-12.82-50.73-17.33-42.75-11.05,37.82-.53,18.63,24.14-97.45,24.14-97.45-5.31,36.74,10.79,21.59,18.47-48.8,7.11-50.09-22.12,26.33-9,15.93,26.37-76.7,26.37-76.7,7.8,26.32,15.47,6.85c.31-.79.58-1.58.81-2.38,5.53-18.72-9.84-37.56-14-36.4-4.3,1.21-10.64,24.21,1,13.67S3904,109.48,3904,109.48s-6.1,14.54,11.21,6.36,11-37.67.84-30.37-9,17.59-3.35,18.23,14.56-11.88,34.32-6.25,176.56,47.17,157.9,53.51-156.85-39.85-168.48-31-26.19,20.73-15.26,37.21,179.84,34,165,56S4072,265.8,4025.39,252s-101.79-26.83-117.74-16.78-43.63,32.34-16.93,45.56,160.33,23.31,158.19,50.22,24.44,45.22-15.25,37.31-135.26-56.11-149.85-44.2-25,29.41-16.76,38.85,164.33,37.36,161,54,8.86,41.8-18.2,40.43-131.46-42.15-138.94-29.4-20.86,31.64,48.82,39.56,67.64,29.8,104.39,42.48,45.11,20.43,55-31.17,56.63-93.81,69.42-92.37S4316.38,577,4309,536.23,4166,145.36,4174.6,133.12,4200,119.48,4200,119.48s147.88,424.48,131.63,406-27-33-21.23-42.27,247.29-98,247.29-98-133.74-336.08-125.19-345,36.29-9.07,36.29-9.07,130,382,118.95,377.39-24.13-39.2-24.13-39.2l-27.19,13.48s-24-42.51-20.94-16.74,23.44,67.87,22.91,51.22-10.42-29.92-13.2-30.23-31.79,10.76-31.79,10.76,8.13,48.46,15.1,28.24-10.87-49.87-19.2-50.82,8.68,25.31-.65,27.56-24.16,1.67-24.24,5,9.1,46.38,12.4,24.63-24.53-60.27-24.82-48.14,15.23,22.72,4.94,26-36.25,3.62-36.39,9.14,3.4,51.27,15.12,27.16-26.05-73.72-26.42-58.3,19.58,34.29,5.57,38.23S4383,437.25,4383,437.25s5.24,51.5,15,31.58-18.42-81.72-25.35-63.71,19.57,34.29,1.8,40-44.12,20.44-47.69,14.5-31.62-71.08-27.84-73.95,39.2-9.92,38.47-17.74-29.85-67.47-24.23-32.59,35.71,93.6,34.54,65.82-17.93-62.83-10.8-51,23.2-.68,23.2-.68,16.38,50.49,20.57,31.08-17.47-81.54-25.14-71.36,10.86,48.73,15.67,41.55,20.7-12,20.7-12,12.9,41.25,17.11,20.73-26.81-79.25-26.34-60.44,3,29.05,14.09,30.32,32.73-11.74,32.73-11.74,13.84,41.34,19.73,27.64-31.28-86.35-31.68-69.85,5.54,39.27,16.74,36.12,86-29.95,86.18-38.77-30.67-74.07-30.67-74.07-43.84,12.66-38.61,26.49,13.12,32.38,13.59,12.57-30.66-72.94-31-58.66,7.19,47.13,12,41.06-32.54,5.12-32.65,9.52,7.28,43.86,10.58,22.16-24.16-73.33-27.39-55,6.38,42.63,8.33,38.44-24.89-5-25,.47,9.14,43,14.22,24.78-20.48-71.82-24.6-54.65-2.77,37.2,4.67,35.84-22.17-2.53-24.16,2.77.68,47.53,7.72,25.15-16.88-67-18.15-52.82.89,38.72,1.92,34.42-94.51,35.62-94.51,35.62-13.65-46.81-8.58-27.47-16.46-44.92-13.49-52.3,44.07-20.36,44.07-20.36,10.93,44.27,1.18,26.61-25.12-69-16.72-71.36,34.55,62.36,29.12,57.33-12.6-14.67-4-23.62,20-19.77,21.64-13,25.3,62.41,23.33,30.2-24-77.66-24.35-63.38-3.52,29.34,8.52,29.61,34.57-12.59,34.57-12.59,20.11,48.59,6.63,31.61-30.69-69.6-18.71-67.14,13.2,27.94,13.2,27.94,26.18-10.24,27.95-6.73,15.62,42.55,3,26.79-28.33-52.8-20-53,29.27,14.34,25.42,20.51-14,3.92,7.39.84,70.56-8.49,79.11-17.43.1-42.93,8.54-8.94,38.64,206.14,74.43,181.51,45.16-69.86,68-57.33S4654.82,393,4677,395.51s225.23-.91,231-10.2-203.47,23.26-213.9-7.75-40.63-47.69-7.06-57.12,239.17-9.22,230.72-3.56-58.41,3.28-34.1,35.85,49.5,25.5,49.5,25.5a510.48,510.48,0,0,0-71-13.6c-37.89-4.31-104.22-21.79-96.17-8.72s36.47,27.34,35.94,51.57,8.44,38.54,5.69,37.12-13.32-26.93-17.12-23-20.06,27.57-18.85,14.44,4-12.81,1.53-27.45,4.64-42.55-22.05-51.11-55.64,1.4-61-9.14-16-28.32-16.77-37.24,259.51-8,256.83-12.72-21.85-17.92-15.8-41.49,21-30.68,13.5-26-245.29-1.44-252.95,9.81-10.6,59.46,3.46,52.24,7.95-65.27.56-66.11-41.68.77-44.38-2.85-23-47.8.63-68.24S4888,149.28,4888,149.28s-17.51-3.09-12.51,22.79,39.71,47.48,24.94,45.8-243.6,6.46-253.54-4.59-24.23-33.62-4.51-45.69,235.33-12.87,204.75-10.85-202.78,5.57-180.7,11.39,42.37,9.21,21,12.29-30.9,15.22-17,16.8-8.9-57.19-10.59-64,259.57,18.52,281.37-6.51,8.81-68.3-20.62-76-270.87-2.22-270.87-2.22,29.82-9.81,32.84,20.23a57.31,57.31,0,0,1-17.72,47.5s250.48,9.79,262.78-3.12-8.29-46-10.37-35.28,10.9,54.05,1.38,67.28,13.92,42.31,34.45,33.65,40.68-43.82,57-29.85,1.51,62.93,1.51,62.93S5178.58,330,5209.37,317s140.35-86.52,126.69-98-137.36-71.75-159.56-71-165.29,80.29-165.29,80.29l32,205.53s170.52,95.65,173.6,79.43-37.59-361.64-38-338.58,12.73,206.45,12.73,206.45-150.87,42.47-112,43.58,136.87-37.44,150.73-35.87,118.64,43.3,121.59,33.7-7.7-189.42-10.94-163.35,24.45,184.76,7.59,196.1-134.71,70.88-92.37,35.9,139.55-33.85,143.2-83.12-28.56-112.44-14.77-107.56,77.88-11,80.93-27.15-155-172.79-155-172.79L5281.74,5l77,31.82s-27.58-6.43-25.05,7,4.94,33.52,4.94,33.52l-19.42,1.08s2.47,16.77,19.06,18.66,25.83-49.79,36.94-51.82S5552,243.53,5551.75,256.72s-11.84,44.91-25.74,46.64-41.21-24.51-41.21-24.51,16,38.17,49.18,45.25,56.08-36.6,36.93-52-87.65-66.12-63.12-40.22,64-12.53,82.86,19.34,23.91,65.49,9.79,80.42-81.35,53.6-90.39,95.6-23.29,63.61-6.93,82,104.83,45.08,113.26,39.4,191.7-190.11,194.91-219.5,14.9-71,6.75-81.81-82.76-25.93-110.58-19.19-106.91,96.86-93.17,105,58.16,6.61,66.16,27.36,12.77,70.94,12.77,70.94-12.82-67.64,4-79,134.71-106.92,89.76-65.82S5624.15,410.44,5621.06,430s-1.53,95.91-6.71,72.12-12.58-80.93-34.75-83.45-72.32,8.33-28,16.68c0,0,16.85-11.34,27.39,23s26.33,89.16,56.94,86,73.94-110.87,126.54-101.57,146.12,43.91,231.62,2.9" />
    </g>
  </g>
</svg>