<svg xmlns="http://www.w3.org/2000/svg" viewBox="0 0 546.02 546.03"><defs><style>.cls-1{fill:#fff;}</style></defs><g id="Layer_2" data-name="Layer 2"><g id="Layer_1-2" data-name="Layer 1"><path class="cls-1" d="M273,0C122.23,0,0,122.23,0,273S122.23,546,273,546,546,423.79,546,273,423.79,0,273,0ZM503.38,149.82a2.43,2.43,0,1,1-2.43,2.43A2.42,2.42,0,0,1,503.38,149.82Zm-32.33,4.85a2.43,2.43,0,1,1,2.43-2.42A2.43,2.43,0,0,1,471.05,154.67Zm2.43,28.64a2.43,2.43,0,1,1-2.43-2.42A2.42,2.42,0,0,1,473.48,183.31Zm-2.92-64.39a2.43,2.43,0,1,1-2.42,2.43A2.43,2.43,0,0,1,470.56,118.92ZM62.58,432A2.43,2.43,0,1,1,65,429.59,2.42,2.42,0,0,1,62.58,432Zm0-31.47A2.42,2.42,0,1,1,65,398.12,2.42,2.42,0,0,1,62.58,400.54Zm29.21,62.94a2.43,2.43,0,1,1,2.42-2.42A2.43,2.43,0,0,1,91.79,463.48Zm0-31.47a2.43,2.43,0,1,1,2.42-2.42A2.42,2.42,0,0,1,91.79,432Zm0-31.47a2.42,2.42,0,1,1,2.42-2.42A2.42,2.42,0,0,1,91.79,400.54ZM121,495a2.43,2.43,0,1,1,2.42-2.42A2.42,2.42,0,0,1,121,495Zm0-31.47a2.43,2.43,0,1,1,2.42-2.42A2.42,2.42,0,0,1,121,463.48ZM121,432a2.43,2.43,0,1,1,2.42-2.42A2.42,2.42,0,0,1,121,432Zm152.9,52.32c-116.7,0-211.31-94.61-211.31-211.32S157.19,61.7,273.89,61.7,485.21,156.31,485.21,273,390.6,484.33,273.89,484.33Zm229.24-303a2.43,2.43,0,1,1-2.42,2.43A2.43,2.43,0,0,1,503.13,181.36Zm.5,66.82a2.43,2.43,0,1,1,2.42-2.43A2.42,2.42,0,0,1,503.63,248.18Zm0-31.07a2.43,2.43,0,1,1,2.42-2.43A2.42,2.42,0,0,1,503.63,217.11Zm32.07-4.76a2.42,2.42,0,1,1-2.42,2.42A2.42,2.42,0,0,1,535.7,212.35Zm2.92,33.32a2.42,2.42,0,1,1-2.42-2.42A2.42,2.42,0,0,1,538.62,245.67Zm-2.42,33.49a2.43,2.43,0,1,1,2.42-2.42A2.42,2.42,0,0,1,536.2,279.16Z"/><path class="cls-1" d="M417.56,368.12l-23.15,21.74A275.2,275.2,0,0,0,272,394.65a237.65,237.65,0,0,1,145.53-26.53Z"/><path class="cls-1" d="M393.72,329.38l-18,26.2A167.45,167.45,0,0,0,266.52,392a161.66,161.66,0,0,1,127.2-62.6Z"/><path class="cls-1" d="M111.19,367.94l23.15,21.74a275.2,275.2,0,0,1,122.38,4.79,237.36,237.36,0,0,0-145.53-26.53Z"/><path class="cls-1" d="M135,329.2,153,355.39a167.45,167.45,0,0,1,109.25,36.4A161.61,161.61,0,0,0,135,329.2Z"/><path class="cls-1" d="M299.16,334.52A31.27,31.27,0,1,1,238.44,324l.19-.52,0,0L227.4,312.22l-2.87,2.87a2.23,2.23,0,0,1-3.15,0l-.09-.1a2.22,2.22,0,0,1,0-3.14l4.47-4.46.05-.06a2.36,2.36,0,0,1,.54-.4,1.76,1.76,0,0,1,.2-.09l.21-.08a2.59,2.59,0,0,1,.63-.09h.23a2.2,2.2,0,0,1,.6.15l.21.09a2.18,2.18,0,0,1,.56.41l15.57,15.57a25.22,25.22,0,0,0-1.74,4.45l-.07.25-.12.46c0,.19-.1.38-.14.57a28.26,28.26,0,0,0-.54,3.23c0,.29,0,.58-.07.88s0,.52,0,.79,0,.66,0,1a26.07,26.07,0,1,0,26.07-26.07c-.49,0-1,0-1.47,0l-.54,0-.62.05c-.28,0-.55.06-.83.1s-.53.07-.8.12-.7.12-1,.19l-.59.13-.63.15a21,21,0,0,0-2.09.64l-.48.17a25.33,25.33,0,0,0-3.18,1.44h0a25.89,25.89,0,0,0-3.9,2.55L236.52,298.9a2.44,2.44,0,0,1-.41-.56l-.09-.21a2.61,2.61,0,0,1-.14-.6,2,2,0,0,1,0-.23,3.19,3.19,0,0,1,.09-.63,1.8,1.8,0,0,1,.08-.21l.09-.2a2.36,2.36,0,0,1,.4-.54l.06-.06L241,291.2a2.21,2.21,0,0,1,3.15,0l.09.09a2.22,2.22,0,0,1,0,3.14l-2.87,2.88,10.4,10.4a31.26,31.26,0,0,1,47.35,26.81Z"/><path class="cls-1" d="M290,334.79a22.53,22.53,0,0,1-43.85,7.29h0c.19-2.53.85-6.41,3.72-9.32,4.87-5,11.6-2.47,16.69-7,2.07-1.84,4.54-5.44,4.65-13.22A22.54,22.54,0,0,1,290,334.79Z"/><circle class="cls-1" cx="262.67" cy="319.28" r="2.77"/><circle class="cls-1" cx="251.69" cy="322.05" r="2.77"/><circle class="cls-1" cx="228.04" cy="299.02" r="2.77"/><circle class="cls-1" cx="217.06" cy="301.79" r="2.77"/><circle class="cls-1" cx="218.89" cy="290.54" r="2.77"/><polygon class="cls-1" points="230.1 179.07 225.93 208.76 225.7 210.4 225.47 212.04 221.79 238.15 204.53 229.94 203.03 229.23 201.54 228.52 198.4 227.03 144.61 195.96 230.1 179.07"/><polygon class="cls-1" points="407.84 234.71 345.65 248.07 343.87 248.38 342.23 248.66 340.58 248.94 269.88 261.01 227.49 240.86 231.65 211.29 231.88 209.67 232.1 208.05 236.35 177.84 283.24 168.57 407.84 234.71"/><path class="cls-1" d="M344.54,232l-2.31,16.62q-3.93,28.13-7.85,56.27l-.36,2.61-7.58,4.67c1.28-1.72,2.65-4.21,2.24-6.9-1-6.71-12.36-10-20.5-12.25-30.07-8.25-45.68-12.4-73.6-13.37-24.75-.85-31.87,1.59-33.74,6-1.22,2.9,0,6.25,1.28,8.74q-3.92-4.09-7.85-8.18,4.39-28.51,8.76-57,1.13-7.28,2.24-14.55a153.35,153.35,0,0,1,20.43-4.28l-.23,1.64-3.68,26.11-2,14.38a9.47,9.47,0,1,0,6,.84l1.76-12.51,4.16-29.57.23-1.62,1-.1c12.7-1.15,23.09,0,43.34,2.26,21.34,2.38,32.26,3.66,43.92,7.93A119.42,119.42,0,0,1,344.54,232Z"/><path class="cls-1" d="M345.41,230.71a121.35,121.35,0,0,0-24.72-12.44c-12.07-4.43-23.52-5.7-44.28-8-19.83-2.21-30.75-3.43-43.67-2.26l-.64.06-.22,1.62-.23,1.62,1.38-.14c12.6-1.13,22.77,0,43,2.26,22.07,2.46,32.3,3.72,43.55,7.84a118.74,118.74,0,0,1,23.23,11.57l-2.25,16.12-8,57.64-2.39,1.47a8.56,8.56,0,0,0,.09-3c-1.22-7.94-14-11.45-21.64-13.54-29.21-8-45.3-12.43-74-13.42-3.27-.11-6.22-.17-8.92-.17-19.16,0-24.49,2.78-26.34,7.15a8.37,8.37,0,0,0-.63,3.55L196,285.73l8.57-55.79,2.16-14A150.07,150.07,0,0,1,225.47,212l.23-1.64.23-1.64a156.05,156.05,0,0,0-21.09,4.39l-1,.28-2.32,15.09-8.95,58.28,16.16,16.85-5.22-9.94c-1.59-3-2-5.52-1.22-7.38,1.8-4.25,11.43-5.76,32.22-5.05,27.16.94,42.08,4.76,73.23,13.31,6.45,1.77,18.44,5.06,19.35,11,.26,1.71-.4,3.63-1.94,5.72l-4.9,6.62,15.22-9.39,8.38-60.12,2.39-17.12Z"/><polygon class="cls-1" points="388.64 169.42 391.65 177.96 400.4 180.31 393.21 185.82 393.67 194.87 386.21 189.73 377.75 192.96 380.33 184.28 374.64 177.23 383.69 177 388.64 169.42"/><polygon class="cls-1" points="293.6 101.8 299.89 119.6 318.11 124.51 303.13 135.98 304.08 154.83 288.54 144.13 270.91 150.87 276.29 132.78 264.44 118.09 283.3 117.61 293.6 101.8"/><polygon class="cls-1" points="228.15 110.09 233.11 124.13 247.47 128 235.66 137.05 236.42 151.91 224.16 143.47 210.26 148.78 214.5 134.52 205.15 122.94 220.03 122.56 228.15 110.09"/><polygon class="cls-1" points="354.83 128.44 359.19 142.66 373.38 147.14 361.19 155.68 361.32 170.56 349.43 161.61 335.32 166.33 340.16 152.26 331.31 140.3 346.19 140.55 354.83 128.44"/><polygon class="cls-1" points="184.67 139.18 187.69 147.72 196.44 150.08 189.25 155.59 189.71 164.64 182.25 159.5 173.78 162.73 176.36 154.05 170.67 147 179.73 146.77 184.67 139.18"/></g></g></svg>